<?xml version="1.0" encoding="UTF-8"?>
<svg xmlns="http://www.w3.org/2000/svg" version="1.1" xmlns:inkscape="http://www.inkscape.org/namespaces/inkscape" viewBox="126.5 30 1309 991.5" width="1309" height="991.5"><title>file:///c%3A/Users/Owner/source/repos/lhat/sample/factorial.lh</title><defs><clipPath id="lhat-svg-2" clipPathUnits="userSpaceOnUse"><rect x="234.5" y="50" width="24" height="24" rx="12"/></clipPath><clipPath id="lhat-svg-6" clipPathUnits="userSpaceOnUse"><rect x="146.5" y="96" width="200" height="235" rx="4"/></clipPath><clipPath id="lhat-svg-9" clipPathUnits="userSpaceOnUse"><rect x="156.5" y="130" width="76" height="44" rx="4"/></clipPath><clipPath id="lhat-svg-11" clipPathUnits="userSpaceOnUse"><rect x="254.5" y="130" width="82" height="44" rx="4"/></clipPath><clipPath id="lhat-svg-14" clipPathUnits="userSpaceOnUse"><rect x="233" y="196" width="103.5" height="125" rx="4"/></clipPath><clipPath id="lhat-svg-16" clipPathUnits="userSpaceOnUse"><rect x="250.5" y="230" width="76" height="44" rx="4"/></clipPath><clipPath id="lhat-svg-19" clipPathUnits="userSpaceOnUse"><rect x="382.5" y="96" width="933" height="888" rx="4"/></clipPath><clipPath id="lhat-svg-22" clipPathUnits="userSpaceOnUse"><rect x="392.5" y="475" width="64" height="44" rx="4"/></clipPath><clipPath id="lhat-svg-24" clipPathUnits="userSpaceOnUse"><rect x="478.5" y="130" width="827" height="734" rx="4"/></clipPath><clipPath id="lhat-svg-27" clipPathUnits="userSpaceOnUse"><rect x="570.5" y="140" width="78" height="30" rx="4"/></clipPath><clipPath id="lhat-svg-30" clipPathUnits="userSpaceOnUse"><rect x="488.5" y="192" width="106" height="88" rx="4"/></clipPath><clipPath id="lhat-svg-32" clipPathUnits="userSpaceOnUse"><rect x="498.5" y="226" width="64" height="44" rx="4"/></clipPath><clipPath id="lhat-svg-34" clipPathUnits="userSpaceOnUse"><rect x="616.5" y="192" width="114" height="88" rx="4"/></clipPath><clipPath id="lhat-svg-36" clipPathUnits="userSpaceOnUse"><rect x="626.5" y="226" width="72" height="44" rx="4"/></clipPath><clipPath id="lhat-svg-37" clipPathUnits="userSpaceOnUse"><rect x="639.5" y="245" width="18" height="20" rx="0"/></clipPath><clipPath id="lhat-svg-39" clipPathUnits="userSpaceOnUse"><rect x="597.5" y="302" width="24" height="24" rx="12"/></clipPath><clipPath id="lhat-svg-42" clipPathUnits="userSpaceOnUse"><rect x="597.5" y="348" width="24" height="24" rx="12"/></clipPath><clipPath id="lhat-svg-44" clipPathUnits="userSpaceOnUse"><rect x="649.5" y="348" width="628" height="506" rx="4"/></clipPath><clipPath id="lhat-svg-46" clipPathUnits="userSpaceOnUse"><rect x="803.5" y="382" width="320" height="120" rx="4"/></clipPath><clipPath id="lhat-svg-48" clipPathUnits="userSpaceOnUse"><rect x="813.5" y="392" width="214" height="100" rx="4"/></clipPath><clipPath id="lhat-svg-50" clipPathUnits="userSpaceOnUse"><rect x="823.5" y="426" width="194" height="56" rx="4"/></clipPath><clipPath id="lhat-svg-52" clipPathUnits="userSpaceOnUse"><rect x="829.5" y="432" width="64" height="44" rx="4"/></clipPath><clipPath id="lhat-svg-54" clipPathUnits="userSpaceOnUse"><rect x="899.5" y="432" width="24" height="44" rx="4"/></clipPath><clipPath id="lhat-svg-56" clipPathUnits="userSpaceOnUse"><rect x="929.5" y="432" width="64" height="44" rx="15"/></clipPath><clipPath id="lhat-svg-57" clipPathUnits="userSpaceOnUse"><rect x="936.5" y="454" width="50" height="14" rx="0"/></clipPath><clipPath id="lhat-svg-59" clipPathUnits="userSpaceOnUse"><rect x="1049.5" y="420" width="64" height="44" rx="15"/></clipPath><clipPath id="lhat-svg-60" clipPathUnits="userSpaceOnUse"><rect x="1056.5" y="442" width="50" height="14" rx="0"/></clipPath><clipPath id="lhat-svg-62" clipPathUnits="userSpaceOnUse"><rect x="659.5" y="524" width="608" height="320" rx="4"/></clipPath><clipPath id="lhat-svg-65" clipPathUnits="userSpaceOnUse"><rect x="747.5" y="534" width="194" height="56" rx="4"/></clipPath><clipPath id="lhat-svg-67" clipPathUnits="userSpaceOnUse"><rect x="753.5" y="540" width="64" height="44" rx="4"/></clipPath><clipPath id="lhat-svg-69" clipPathUnits="userSpaceOnUse"><rect x="823.5" y="540" width="24" height="44" rx="4"/></clipPath><clipPath id="lhat-svg-71" clipPathUnits="userSpaceOnUse"><rect x="853.5" y="540" width="64" height="44" rx="15"/></clipPath><clipPath id="lhat-svg-76" clipPathUnits="userSpaceOnUse"><rect x="771.5" y="636" width="256" height="198" rx="4"/></clipPath><clipPath id="lhat-svg-79" clipPathUnits="userSpaceOnUse"><rect x="781.5" y="670" width="64" height="44" rx="4"/></clipPath><clipPath id="lhat-svg-81" clipPathUnits="userSpaceOnUse"><rect x="867.5" y="670" width="150" height="44" rx="4"/></clipPath><clipPath id="lhat-svg-84" clipPathUnits="userSpaceOnUse"><rect x="926.5" y="736" width="91" height="88" rx="4"/></clipPath><clipPath id="lhat-svg-86" clipPathUnits="userSpaceOnUse"><rect x="936.5" y="770" width="71" height="44" rx="4"/></clipPath><clipPath id="lhat-svg-89" clipPathUnits="userSpaceOnUse"><rect x="1063.5" y="770" width="194" height="56" rx="4"/></clipPath><clipPath id="lhat-svg-91" clipPathUnits="userSpaceOnUse"><rect x="1069.5" y="776" width="64" height="44" rx="4"/></clipPath><clipPath id="lhat-svg-93" clipPathUnits="userSpaceOnUse"><rect x="1139.5" y="776" width="24" height="44" rx="4"/></clipPath><clipPath id="lhat-svg-95" clipPathUnits="userSpaceOnUse"><rect x="1169.5" y="776" width="64" height="44" rx="15"/></clipPath><clipPath id="lhat-svg-96" clipPathUnits="userSpaceOnUse"><rect x="1176.5" y="798" width="50" height="14" rx="0"/></clipPath><clipPath id="lhat-svg-99" clipPathUnits="userSpaceOnUse"><rect x="1221.5" y="886" width="84" height="88" rx="4"/></clipPath><clipPath id="lhat-svg-101" clipPathUnits="userSpaceOnUse"><rect x="1231.5" y="920" width="64" height="44" rx="4"/></clipPath><clipPath id="lhat-svg-104" clipPathUnits="userSpaceOnUse"><rect x="1351.5" y="920" width="64" height="44" rx="15"/></clipPath><clipPath id="lhat-svg-105" clipPathUnits="userSpaceOnUse"><rect x="1358.5" y="942" width="50" height="14" rx="0"/></clipPath><marker viewBox="-10 -10 20 20" refX="0" refY="0" orient="auto-start-reverse" markerWidth="11" markerHeight="11" markerUnits="strokeWidth" fill="#000000" stroke="none" stroke-width="1px" stroke-linecap="butt" stroke-linejoin="miter" stroke-dasharray="none" stroke-dashoffset="0px" fill-rule="nonzero" vector-effect="none" id="lhat-svg-107"><polyline points="-5,-4 0,0 -5,4 -5,-4" fill="#ffffff" stroke="#ffffff" stroke-width="1px" stroke-linecap="round" stroke-linejoin="round" stroke-dasharray="none" stroke-dashoffset="0px" fill-rule="nonzero" vector-effect="none"/></marker><marker viewBox="-10 -10 20 20" refX="0" refY="0" orient="auto-start-reverse" markerWidth="11" markerHeight="11" markerUnits="strokeWidth" fill="#000000" stroke="none" stroke-width="1px" stroke-linecap="butt" stroke-linejoin="miter" stroke-dasharray="none" stroke-dashoffset="0px" fill-rule="nonzero" vector-effect="none" id="lhat-svg-111"><polyline points="-5,-4 0,0 -5,4 -5,-4" fill="#57a3f8" stroke="#57a3f8" stroke-width="1px" stroke-linecap="round" stroke-linejoin="round" stroke-dasharray="none" stroke-dashoffset="0px" fill-rule="nonzero" vector-effect="none"/></marker><pattern id="lhat-svg-118" patternUnits="userSpaceOnUse" width="20" height="20" patternTransform="translate(-10,-10)" x="16.5" y="40"><circle cx="0.5" cy="0.5" r="0.5" fill="#91919a" stroke="none" stroke-width="1px" stroke-linecap="butt" stroke-linejoin="miter" stroke-dasharray="none" stroke-dashoffset="0px" fill-rule="nonzero" vector-effect="none"/></pattern></defs><g id="background" inkscape:label="Background"><rect x="126.5" y="30" width="1309" height="991.5" fill="#121314"/><rect x="126.5" y="30" width="1309" height="991.5" fill="url(#lhat-svg-118)"/></g><g id="lhat-svg-1" data-node-id="start-1" inkscape:label="Execution start"><g><rect x="235" y="50.5" width="23" height="23" rx="11.5" fill="#ef8773" stroke="#ef8773" stroke-width="1px"/><g clip-path="url(#lhat-svg-2)"><g transform="matrix(0.917 0 0 0.917 235.5 51)"><path d="M 6.5 8 L 17.5 8 L 12 17 Z" fill="#ffffff" stroke="none" stroke-width="1px" stroke-linecap="butt" stroke-linejoin="miter" stroke-dasharray="none" stroke-dashoffset="0px" fill-rule="nonzero" vector-effect="none"/></g></g></g></g><g id="lhat-svg-3" data-node-id="call-58" inkscape:label="Node"><g><rect x="147" y="96.5" width="1268" height="887" rx="3.5" fill="none" fill-opacity="0" stroke="#2a2b2c" stroke-width="1px"/></g></g><g id="lhat-svg-5" data-node-id="call-58__card" inkscape:label="Call"><g><rect x="147" y="96.5" width="199" height="234" rx="3.5" fill="#191a1b" stroke="#2a2b2c" stroke-width="1px"/><g clip-path="url(#lhat-svg-6)"><g><g><g><text x="155.5" y="110" font-family="Consolas, &quot;Courier New&quot;, monospace" font-size="11px" font-style="normal" font-weight="400" letter-spacing="normal" xml:space="preserve" fill="#89cff0">Call</text></g></g></g></g></g></g><g id="lhat-svg-18" data-node-id="call-52" inkscape:label="Call"><g><rect x="383" y="96.5" width="932" height="887" rx="3.5" fill="#191a1b" stroke="#2a2b2c" stroke-width="1px"/><g clip-path="url(#lhat-svg-19)"><g><g><g><text x="391.5" y="110" font-family="Consolas, &quot;Courier New&quot;, monospace" font-size="11px" font-style="normal" font-weight="400" letter-spacing="normal" xml:space="preserve" fill="#89cff0">Call</text></g></g></g></g></g></g><g id="lhat-svg-103" data-node-id="int-47" inkscape:label="10"><g><rect x="1352" y="920.5" width="63" height="43" rx="14.5" fill="#191a1b" stroke="#565758" stroke-width="1px"/><g clip-path="url(#lhat-svg-104)"><g><g opacity="0.75"><text x="1360.5" y="930" font-family="Consolas, &quot;Courier New&quot;, monospace" font-size="10px" font-style="italic" font-weight="400" letter-spacing="normal" xml:space="preserve" fill="#73cfb8">Number</text><path d="M 1360.5 932 h 32.988" stroke-width="0.7" fill="none" stroke="#73cfb8" stroke-dasharray="1 1"/></g></g><g><g><g clip-path="url(#lhat-svg-105)"><text x="1358.5" y="952.5" font-family="Consolas, &quot;Courier New&quot;, monospace" font-size="11px" font-style="normal" font-weight="400" letter-spacing="normal" xml:space="preserve" fill="#bfbfbf">10</text></g></g></g></g></g></g><g id="lhat-svg-8" data-node-id="output-slot-3" inkscape:label="No value"><g><rect x="157" y="130.5" width="75" height="43" rx="3.5" fill="#121314" stroke="#2a2b2c" stroke-width="1px"/><g clip-path="url(#lhat-svg-9)"><g><g><g><g opacity="0.75"><text x="165.5" y="154" font-family="Consolas, &quot;Courier New&quot;, monospace" font-size="10px" font-style="italic" font-weight="400" letter-spacing="normal" xml:space="preserve" fill="#73cfb8">No value</text><path d="M 165.5 156 h 43.984" stroke-width="0.7" fill="none" stroke="#73cfb8" stroke-dasharray="1 1"/></g><g/></g></g></g></g></g></g><g id="lhat-svg-10" data-node-id="ident-2" inkscape:label="Function…print"><g><rect x="255" y="130.5" width="81" height="43" rx="3.5" fill="#121314" stroke="#2a2b2c" stroke-width="1px"/><g clip-path="url(#lhat-svg-11)"><g><g><g><g opacity="0.75"><text x="263.5" y="147.5" font-family="Consolas, &quot;Courier New&quot;, monospace" font-size="10px" font-style="italic" font-weight="400" letter-spacing="normal" xml:space="preserve" fill="#73cfb8">Function…</text><path d="M 263.5 149.5 h 49.482" stroke-width="0.7" fill="none" stroke="#73cfb8" stroke-dasharray="1 1"/></g><g><text x="263.5" y="162.5" font-family="Consolas, &quot;Courier New&quot;, monospace" font-size="11px" font-style="normal" font-weight="400" letter-spacing="normal" xml:space="preserve" fill="#bbbebf">print</text></g></g></g></g></g></g></g><g id="lhat-svg-13" data-node-id="io-input-55" inkscape:label="Input"><g><g clip-path="url(#lhat-svg-14)"><g><path fill="none" d="M 280.25 204 H 326 Q 336 204 336 214 V 310.5 Q 336 320.5 326 320.5 H 243.5 Q 233.5 320.5 233.5 310.5 V 214 Q 233.5 204 243.5 204 H 242" stroke="#e8a15b" stroke-width="1px"/><g><text x="246" y="207" font-family="Consolas, &quot;Courier New&quot;, monospace" font-size="11px" font-style="normal" font-weight="400" letter-spacing="normal" xml:space="preserve" fill="#e8a15b">Input</text></g></g></g></g></g><g id="lhat-svg-21" data-node-id="output-slot-45" inkscape:label="Number"><g><rect x="393" y="475.5" width="63" height="43" rx="3.5" fill="#121314" stroke="#2a2b2c" stroke-width="1px"/><g clip-path="url(#lhat-svg-22)"><g><g><g><g opacity="0.75"><text x="401.5" y="499" font-family="Consolas, &quot;Courier New&quot;, monospace" font-size="10px" font-style="italic" font-weight="400" letter-spacing="normal" xml:space="preserve" fill="#73cfb8">Number</text><path d="M 401.5 501 h 32.988" stroke-width="0.7" fill="none" stroke="#73cfb8" stroke-dasharray="1 1"/></g><g/></g></g></g></g></g></g><g id="lhat-svg-23" data-node-id="func-44" inkscape:label="Node"><g><rect x="479" y="130.5" width="826" height="733" rx="3.5" fill="#1e1f20" stroke="#2a2b2c" stroke-width="1px"/><g clip-path="url(#lhat-svg-24)"/></g></g><g id="lhat-svg-98" data-node-id="io-input-49" inkscape:label="Input"><g><g clip-path="url(#lhat-svg-99)"><g><path fill="none" d="M 1268.75 894 H 1295 Q 1305 894 1305 904 V 963.5 Q 1305 973.5 1295 973.5 H 1232 Q 1222 973.5 1222 963.5 V 904 Q 1222 894 1232 894 H 1230.5" stroke="#e8a15b" stroke-width="1px"/><g><text x="1234.5" y="897" font-family="Consolas, &quot;Courier New&quot;, monospace" font-size="11px" font-style="normal" font-weight="400" letter-spacing="normal" xml:space="preserve" fill="#e8a15b">Input</text></g></g></g></g></g><g id="lhat-svg-15" data-node-id="input-slot-4" inkscape:label="Any typeInput 1"><g><rect x="251" y="230.5" width="75" height="43" rx="3.5" fill="#121314" stroke="#2a2b2c" stroke-width="1px"/><g clip-path="url(#lhat-svg-16)"><g><g><g><g opacity="0.75"><text x="259.5" y="247.5" font-family="Consolas, &quot;Courier New&quot;, monospace" font-size="10px" font-style="italic" font-weight="400" letter-spacing="normal" xml:space="preserve" fill="#73cfb8">Any type</text><path d="M 259.5 249.5 h 43.984" stroke-width="0.7" fill="none" stroke="#73cfb8" stroke-dasharray="1 1"/></g><g><text x="259.5" y="262.5" font-family="Consolas, &quot;Courier New&quot;, monospace" font-size="11px" font-style="normal" font-weight="400" letter-spacing="normal" xml:space="preserve" fill="#bbbebf">Input 1</text></g></g></g></g></g></g></g><g id="lhat-svg-38" data-node-id="start-14" inkscape:label="Execution start"><g><rect x="598" y="302.5" width="23" height="23" rx="11.5" fill="#ef8773" stroke="#ef8773" stroke-width="1px"/><g clip-path="url(#lhat-svg-39)"><g transform="matrix(0.917 0 0 0.917 598.5 303)"><path d="M 6.5 8 L 17.5 8 L 12 17 Z" fill="#ffffff" stroke="none" stroke-width="1px" stroke-linecap="butt" stroke-linejoin="miter" stroke-dasharray="none" stroke-dashoffset="0px" fill-rule="nonzero" vector-effect="none"/></g></g></g></g><g id="lhat-svg-100" data-node-id="input-slot-46" inkscape:label="Numbern"><g><rect x="1232" y="920.5" width="63" height="43" rx="3.5" fill="#121314" stroke="#2a2b2c" stroke-width="1px"/><g clip-path="url(#lhat-svg-101)"><g><g><g><g opacity="0.75"><text x="1240.5" y="937.5" font-family="Consolas, &quot;Courier New&quot;, monospace" font-size="10px" font-style="italic" font-weight="400" letter-spacing="normal" xml:space="preserve" fill="#73cfb8">Number</text><path d="M 1240.5 939.5 h 32.988" stroke-width="0.7" fill="none" stroke="#73cfb8" stroke-dasharray="1 1"/></g><g><text x="1240.5" y="952.5" font-family="Consolas, &quot;Courier New&quot;, monospace" font-size="11px" font-style="normal" font-weight="400" letter-spacing="normal" xml:space="preserve" fill="#bbbebf">n</text></g></g></g></g></g></g></g><g id="lhat-svg-26" data-node-id="signature-title-5" inkscape:label="Function"><g><rect x="571" y="140.5" width="77" height="29" rx="3.5" fill="none" fill-opacity="0" stroke="none" stroke-opacity="0" stroke-width="1px"/><g clip-path="url(#lhat-svg-27)"><g><g><g><text x="585.297" y="158.5" font-family="Consolas, &quot;Courier New&quot;, monospace" font-size="11px" font-style="italic" font-weight="400" letter-spacing="normal" xml:space="preserve" fill="#89cff0">Function</text></g></g></g></g></g></g><g id="lhat-svg-41" data-node-id="return-16" inkscape:label="Return"><g><rect x="598" y="348.5" width="23" height="23" rx="11.5" fill="#ef8773" stroke="#ef8773" stroke-width="1px"/><g clip-path="url(#lhat-svg-42)"><g transform="matrix(0.917 0 0 0.917 598.5 349)"><path d="M 18 17 H 9 V 6 M 5 10 L 9 6 L 13 10" fill="none" stroke="#ffffff" stroke-width="1.8px" stroke-linecap="round" stroke-linejoin="round" stroke-dasharray="none" stroke-dashoffset="0px" fill-rule="nonzero" vector-effect="none"/></g></g></g></g><g id="lhat-svg-43" data-node-id="if-expr-17" inkscape:label="Conditional Selection"><g><rect x="650" y="348.5" width="627" height="505" rx="3.5" fill="#232425" stroke="#2a2b2c" stroke-width="1px"/><g clip-path="url(#lhat-svg-44)"><g><g><g><text x="658.5" y="362" font-family="Consolas, &quot;Courier New&quot;, monospace" font-size="11px" font-style="italic" font-weight="400" letter-spacing="normal" xml:space="preserve" fill="#dda1df">Conditional Selection</text></g></g></g></g></g></g><g id="lhat-svg-29" data-node-id="io-output-9" inkscape:label="Output"><g><g clip-path="url(#lhat-svg-30)"><g><path fill="none" d="M 541.797 200 H 584 Q 594 200 594 210 V 269.5 Q 594 279.5 584 279.5 H 499 Q 489 279.5 489 269.5 V 210 Q 489 200 499 200 H 497.5" stroke="#df91b8" stroke-width="1px"/><g><text x="501.5" y="203" font-family="Consolas, &quot;Courier New&quot;, monospace" font-size="11px" font-style="normal" font-weight="400" letter-spacing="normal" xml:space="preserve" fill="#df91b8">Output</text></g></g></g></g></g><g id="lhat-svg-33" data-node-id="io-input-8" inkscape:label="Input"><g><g clip-path="url(#lhat-svg-34)"><g><path fill="none" d="M 663.75 200 H 720 Q 730 200 730 210 V 269.5 Q 730 279.5 720 279.5 H 627 Q 617 279.5 617 269.5 V 210 Q 617 200 627 200 H 625.5" stroke="#e8a15b" stroke-width="1px"/><g><text x="629.5" y="203" font-family="Consolas, &quot;Courier New&quot;, monospace" font-size="11px" font-style="normal" font-weight="400" letter-spacing="normal" xml:space="preserve" fill="#e8a15b">Input</text></g></g></g></g></g><g id="lhat-svg-45" data-node-id="if-clause-18" inkscape:label=""><g><rect x="804" y="382.5" width="319" height="119" rx="3.5" fill="#28292a" stroke="#2a2b2c" stroke-width="1px"/><g clip-path="url(#lhat-svg-46)"><g><g/></g></g></g></g><g id="lhat-svg-61" data-node-id="if-clause-25" inkscape:label=""><g><rect x="660" y="524.5" width="607" height="319" rx="3.5" fill="#28292a" stroke="#2a2b2c" stroke-width="1px"/><g clip-path="url(#lhat-svg-62)"><g><g/></g></g></g></g><g id="lhat-svg-31" data-node-id="result-type-7" inkscape:label="Number"><g><rect x="499" y="226.5" width="63" height="43" rx="3.5" fill="#121314" stroke="#2a2b2c" stroke-width="1px"/><g clip-path="url(#lhat-svg-32)"><g><g><g><g opacity="0.75"><text x="507.5" y="251" font-family="Consolas, &quot;Courier New&quot;, monospace" font-size="10px" font-style="italic" font-weight="400" letter-spacing="normal" xml:space="preserve" fill="#73cfb8">Number</text><path d="M 507.5 253 h 32.988" stroke-width="0.7" fill="none" stroke="#73cfb8" stroke-dasharray="1 1"/></g><g/></g></g></g></g></g></g><g id="lhat-svg-35" data-node-id="param-6" inkscape:label="Number"><g><rect x="627" y="226.5" width="71" height="43" rx="3.5" fill="#121314" stroke="#2a2b2c" stroke-width="1px"/><g clip-path="url(#lhat-svg-36)"><g><g><g><g><text x="635.5" y="240" font-family="Consolas, &quot;Courier New&quot;, monospace" font-size="10px" font-style="italic" font-weight="400" letter-spacing="normal" xml:space="preserve" fill="#73cfb8">Number</text><path d="M 635.5 242 h 32.988" stroke-width="0.7" fill="none" stroke="#73cfb8"/></g><g><rect x="636" y="244.5" width="25.141" height="21" rx="2.5" fill="#191a1b" stroke="none" stroke-opacity="0" stroke-width="1px"/><g clip-path="url(#lhat-svg-37)"><text x="639.5" y="258.5" font-family="Consolas, &quot;Courier New&quot;, monospace" font-size="11px" font-style="normal" font-weight="400" letter-spacing="normal" xml:space="preserve" fill="#bfbfbf">n</text></g></g></g></g></g></g></g></g><g id="lhat-svg-58" data-node-id="int-24" inkscape:label="1"><g><rect x="1050" y="420.5" width="63" height="43" rx="14.5" fill="#191a1b" stroke="#565758" stroke-width="1px"/><g clip-path="url(#lhat-svg-59)"><g><g opacity="0.75"><text x="1058.5" y="430" font-family="Consolas, &quot;Courier New&quot;, monospace" font-size="10px" font-style="italic" font-weight="400" letter-spacing="normal" xml:space="preserve" fill="#73cfb8">Number</text><path d="M 1058.5 432 h 32.988" stroke-width="0.7" fill="none" stroke="#73cfb8" stroke-dasharray="1 1"/></g></g><g><g><g clip-path="url(#lhat-svg-60)"><text x="1056.5" y="452.5" font-family="Consolas, &quot;Courier New&quot;, monospace" font-size="11px" font-style="normal" font-weight="400" letter-spacing="normal" xml:space="preserve" fill="#bfbfbf">1</text></g></g></g></g></g></g><g id="lhat-svg-64" data-node-id="binary-41" inkscape:label="Node"><g><rect x="748" y="534.5" width="193" height="55" rx="3.5" fill="#2d2e2f" stroke="#2a2b2c" stroke-width="1px"/><g clip-path="url(#lhat-svg-65)"/></g></g><g id="lhat-svg-66" data-node-id="ident-26" inkscape:label="Numbern"><g><rect x="754" y="540.5" width="63" height="43" rx="3.5" fill="#121314" stroke="#2a2b2c" stroke-width="1px"/><g clip-path="url(#lhat-svg-67)"><g><g><g><g opacity="0.75"><text x="762.5" y="557.5" font-family="Consolas, &quot;Courier New&quot;, monospace" font-size="10px" font-style="italic" font-weight="400" letter-spacing="normal" xml:space="preserve" fill="#73cfb8">Number</text><path d="M 762.5 559.5 h 32.988" stroke-width="0.7" fill="none" stroke="#73cfb8" stroke-dasharray="1 1"/></g><g><text x="762.5" y="572.5" font-family="Consolas, &quot;Courier New&quot;, monospace" font-size="11px" font-style="normal" font-weight="400" letter-spacing="normal" xml:space="preserve" fill="#bbbebf">n</text></g></g></g></g></g></g></g><g id="lhat-svg-68" data-node-id="operator-27" inkscape:label="*"><g><rect x="824" y="540.5" width="23" height="43" rx="3.5" fill="#121314" stroke="#2a2b2c" stroke-width="1px"/><g clip-path="url(#lhat-svg-69)"><g><g><text x="832.469" y="565.5" font-family="Consolas, &quot;Courier New&quot;, monospace" font-size="11px" font-style="normal" font-weight="400" letter-spacing="normal" xml:space="preserve" fill="#bbbebf">*</text></g></g></g></g></g><g id="lhat-svg-70" data-node-id="operand-slot-40" inkscape:label="•"><g><rect x="854" y="540.5" width="63" height="43" rx="14.5" fill="#121314" stroke="#2a2b2c" stroke-width="1px"/><g clip-path="url(#lhat-svg-71)"><g><g><text x="882.469" y="565.5" font-family="Consolas, &quot;Courier New&quot;, monospace" font-size="11px" font-style="normal" font-weight="400" letter-spacing="normal" xml:space="preserve" fill="#bbbebf">•</text></g></g></g></g></g><g id="lhat-svg-75" data-node-id="call-39__card" inkscape:label="Call"><g><rect x="772" y="636.5" width="255" height="197" rx="3.5" fill="#2d2e2f" stroke="#2a2b2c" stroke-width="1px"/><g clip-path="url(#lhat-svg-76)"><g><g><g><text x="780.5" y="650" font-family="Consolas, &quot;Courier New&quot;, monospace" font-size="11px" font-style="normal" font-weight="400" letter-spacing="normal" xml:space="preserve" fill="#89cff0">Call</text></g></g></g></g></g></g><g id="lhat-svg-88" data-node-id="binary-34" inkscape:label="Node"><g><rect x="1064" y="770.5" width="193" height="55" rx="3.5" fill="#2d2e2f" stroke="#2a2b2c" stroke-width="1px"/><g clip-path="url(#lhat-svg-89)"/></g></g><g id="lhat-svg-90" data-node-id="ident-31" inkscape:label="Numbern"><g><rect x="1070" y="776.5" width="63" height="43" rx="3.5" fill="#121314" stroke="#2a2b2c" stroke-width="1px"/><g clip-path="url(#lhat-svg-91)"><g><g><g><g opacity="0.75"><text x="1078.5" y="793.5" font-family="Consolas, &quot;Courier New&quot;, monospace" font-size="10px" font-style="italic" font-weight="400" letter-spacing="normal" xml:space="preserve" fill="#73cfb8">Number</text><path d="M 1078.5 795.5 h 32.988" stroke-width="0.7" fill="none" stroke="#73cfb8" stroke-dasharray="1 1"/></g><g><text x="1078.5" y="808.5" font-family="Consolas, &quot;Courier New&quot;, monospace" font-size="11px" font-style="normal" font-weight="400" letter-spacing="normal" xml:space="preserve" fill="#bbbebf">n</text></g></g></g></g></g></g></g><g id="lhat-svg-92" data-node-id="operator-32" inkscape:label="-"><g><rect x="1140" y="776.5" width="23" height="43" rx="3.5" fill="#121314" stroke="#2a2b2c" stroke-width="1px"/><g clip-path="url(#lhat-svg-93)"><g><g><text x="1148.469" y="801.5" font-family="Consolas, &quot;Courier New&quot;, monospace" font-size="11px" font-style="normal" font-weight="400" letter-spacing="normal" xml:space="preserve" fill="#bbbebf">-</text></g></g></g></g></g><g id="lhat-svg-94" data-node-id="int-33" inkscape:label="1"><g><rect x="1170" y="776.5" width="63" height="43" rx="14.5" fill="#191a1b" stroke="#565758" stroke-width="1px"/><g clip-path="url(#lhat-svg-95)"><g><g opacity="0.75"><text x="1178.5" y="786" font-family="Consolas, &quot;Courier New&quot;, monospace" font-size="10px" font-style="italic" font-weight="400" letter-spacing="normal" xml:space="preserve" fill="#73cfb8">Number</text><path d="M 1178.5 788 h 32.988" stroke-width="0.7" fill="none" stroke="#73cfb8" stroke-dasharray="1 1"/></g></g><g><g><g clip-path="url(#lhat-svg-96)"><text x="1176.5" y="808.5" font-family="Consolas, &quot;Courier New&quot;, monospace" font-size="11px" font-style="normal" font-weight="400" letter-spacing="normal" xml:space="preserve" fill="#bfbfbf">1</text></g></g></g></g></g></g><g id="lhat-svg-78" data-node-id="output-slot-29" inkscape:label="Number"><g><rect x="782" y="670.5" width="63" height="43" rx="3.5" fill="#121314" stroke="#2a2b2c" stroke-width="1px"/><g clip-path="url(#lhat-svg-79)"><g><g><g><g opacity="0.75"><text x="790.5" y="694" font-family="Consolas, &quot;Courier New&quot;, monospace" font-size="10px" font-style="italic" font-weight="400" letter-spacing="normal" xml:space="preserve" fill="#73cfb8">Number</text><path d="M 790.5 696 h 32.988" stroke-width="0.7" fill="none" stroke="#73cfb8" stroke-dasharray="1 1"/></g><g/></g></g></g></g></g></g><g id="lhat-svg-80" data-node-id="hat-ident-28" inkscape:label="Function…Current subroutine"><g><rect x="868" y="670.5" width="149" height="43" rx="3.5" fill="#121314" stroke="#2a2b2c" stroke-width="1px"/><g clip-path="url(#lhat-svg-81)"><g><g><g><g opacity="0.75"><text x="876.5" y="687.5" font-family="Consolas, &quot;Courier New&quot;, monospace" font-size="10px" font-style="italic" font-weight="400" letter-spacing="normal" xml:space="preserve" fill="#73cfb8">Function…</text><path d="M 876.5 689.5 h 49.482" stroke-width="0.7" fill="none" stroke="#73cfb8" stroke-dasharray="1 1"/></g><g><text x="876.5" y="702.5" font-family="Consolas, &quot;Courier New&quot;, monospace" font-size="11px" font-style="normal" font-weight="400" letter-spacing="normal" xml:space="preserve" fill="#bbbebf">Current subroutine</text></g></g></g></g></g></g></g><g id="lhat-svg-83" data-node-id="io-input-36" inkscape:label="Input"><g><g clip-path="url(#lhat-svg-84)"><g><path fill="none" d="M 973.75 744 H 1007 Q 1017 744 1017 754 V 813.5 Q 1017 823.5 1007 823.5 H 937 Q 927 823.5 927 813.5 V 754 Q 927 744 937 744 H 935.5" stroke="#e8a15b" stroke-width="1px"/><g><text x="939.5" y="747" font-family="Consolas, &quot;Courier New&quot;, monospace" font-size="11px" font-style="normal" font-weight="400" letter-spacing="normal" xml:space="preserve" fill="#e8a15b">Input</text></g></g></g></g></g><g id="lhat-svg-85" data-node-id="input-slot-30" inkscape:label="NumberInput 1"><g><rect x="937" y="770.5" width="70" height="43" rx="3.5" fill="#121314" stroke="#2a2b2c" stroke-width="1px"/><g clip-path="url(#lhat-svg-86)"><g><g><g><g opacity="0.75"><text x="945.5" y="787.5" font-family="Consolas, &quot;Courier New&quot;, monospace" font-size="10px" font-style="italic" font-weight="400" letter-spacing="normal" xml:space="preserve" fill="#73cfb8">Number</text><path d="M 945.5 789.5 h 32.988" stroke-width="0.7" fill="none" stroke="#73cfb8" stroke-dasharray="1 1"/></g><g><text x="945.5" y="802.5" font-family="Consolas, &quot;Courier New&quot;, monospace" font-size="11px" font-style="normal" font-weight="400" letter-spacing="normal" xml:space="preserve" fill="#bbbebf">Input 1</text></g></g></g></g></g></g></g><g id="lhat-svg-108" data-edge-id="x__block-0__ord0" inkscape:label="Connection"><g transform="matrix(1 0 0 1 136.5 40)"><path d="M110 38.5L110 44.5L110 45L110 45L110 45.5L110 51.5" fill="none" stroke="#ffffff" stroke-width="2.1px" stroke-linecap="butt" stroke-linejoin="miter" stroke-dasharray="none" stroke-dashoffset="0px" fill-rule="nonzero" vector-effect="none" marker-end="url(#lhat-svg-107)"/></g></g><g id="lhat-svg-109" data-edge-id="x__block-0__ord1" inkscape:label="Connection"><g transform="matrix(1 0 0 1 136.5 40)"><path d="M110 295.5L110 301.5L110 949.5L110 949.5L110 955.5L110 961.5" fill="none" stroke="#ffffff" stroke-width="2.1px" stroke-linecap="butt" stroke-linejoin="miter" stroke-dasharray="none" stroke-dashoffset="0px" fill-rule="nonzero" vector-effect="none" marker-end="url(#lhat-svg-107)"/></g></g><g id="lhat-svg-116" data-edge-id="d__call-58__input-slot-4" inkscape:label="Connection"><g transform="matrix(1 0 0 1 136.5 40)"><path d="M251.5 457L245.5 457L 238.5,457Q 232.5,457 232.5,451L 232.5,218Q 232.5,212 226.5,212L200.5 212L194.5 212" fill="none" stroke="#57a3f8" stroke-width="1.5px" stroke-linecap="butt" stroke-linejoin="miter" stroke-dasharray="none" stroke-dashoffset="0px" fill-rule="nonzero" vector-effect="none" marker-end="url(#lhat-svg-111)"/></g></g><g id="lhat-svg-117" data-edge-id="d__call-58__input-slot-46" inkscape:label="Connection"><g transform="matrix(1 0 0 1 136.5 40)"><path d="M1210.5 902L1204.5 902L1201.5 902L1201.5 902L1169.5 902L1163.5 902" fill="none" stroke="#57a3f8" stroke-width="1.5px" stroke-linecap="butt" stroke-linejoin="miter" stroke-dasharray="none" stroke-dashoffset="0px" fill-rule="nonzero" vector-effect="none" marker-end="url(#lhat-svg-111)"/></g></g><g id="lhat-svg-106" data-edge-id="x__block-13__ord0" inkscape:label="Connection"><g transform="matrix(1 0 0 1 136.5 40)"><path d="M473 290.5L473 296.5L473 297L473 297L473 297.5L473 303.5" fill="none" stroke="#ffffff" stroke-width="2.1px" stroke-linecap="butt" stroke-linejoin="miter" stroke-dasharray="none" stroke-dashoffset="0px" fill-rule="nonzero" vector-effect="none" marker-end="url(#lhat-svg-107)"/></g></g><g id="lhat-svg-115" data-edge-id="d__return-row-15__definition" inkscape:label="Connection"><g transform="matrix(1 0 0 1 136.5 40)"><path d="M508.5 320L502.5 320L499 320L499 320L495.5 320L489.5 320" fill="none" stroke="#57a3f8" stroke-width="1.5px" stroke-linecap="butt" stroke-linejoin="miter" stroke-dasharray="none" stroke-dashoffset="0px" fill-rule="nonzero" vector-effect="none" marker-end="url(#lhat-svg-111)"/></g></g><g id="lhat-svg-113" data-edge-id="d__if-expr-17__branch__int-24" inkscape:label="Connection"><g transform="matrix(1 0 0 1 136.5 40)"><path d="M908.5 395L902.5 395L 532.5,395Q 526.5,395 526.5,389L 526.5,326Q 526.5,320 520.5,320L514.5 320L508.5 320" fill="none" stroke="#57a3f8" stroke-width="1.5px" stroke-linecap="butt" stroke-linejoin="miter" stroke-dasharray="none" stroke-dashoffset="0px" fill-rule="nonzero" vector-effect="none"/></g></g><g id="lhat-svg-114" data-edge-id="d__if-expr-17__branch__operator-tree-43" inkscape:label="Connection"><g transform="matrix(1 0 0 1 136.5 40)"><path d="M606.5 509L600.5 509L 532.5,509Q 526.5,509 526.5,503L 526.5,326Q 526.5,320 520.5,320L514.5 320L508.5 320" fill="none" stroke="#57a3f8" stroke-width="1.5px" stroke-linecap="butt" stroke-linejoin="miter" stroke-dasharray="none" stroke-dashoffset="0px" fill-rule="nonzero" vector-effect="none"/></g></g><g id="lhat-svg-112" data-edge-id="o__operator-tree-43__operand-slot-40" inkscape:label="Connection"><g transform="matrix(1 0 0 1 136.5 40)"><path d="M 630.5 611 H 606.5 V 566.5 H 749 V 548.5" fill="none" stroke="#57a3f8" stroke-width="1.5px" stroke-linecap="butt" stroke-linejoin="miter" stroke-dasharray="none" stroke-dashoffset="0px" fill-rule="nonzero" vector-effect="none" marker-end="url(#lhat-svg-111)"/></g></g><g id="lhat-svg-110" data-edge-id="d__call-39__input-slot-30" inkscape:label="Connection"><g transform="matrix(1 0 0 1 136.5 40)"><path d="M922.5 752L916.5 752L913.5 752L913.5 752L881.5 752L875.5 752" fill="none" stroke="#57a3f8" stroke-width="1.5px" stroke-linecap="butt" stroke-linejoin="miter" stroke-dasharray="none" stroke-dashoffset="0px" fill-rule="nonzero" vector-effect="none" marker-end="url(#lhat-svg-111)"/></g></g><g id="lhat-svg-47" data-node-id="condition-23" inkscape:label="Condition"><g><rect x="814" y="392.5" width="213" height="99" rx="3.5" fill="#2d2e2f" stroke="#2a2b2c" stroke-width="1px"/><g clip-path="url(#lhat-svg-48)"><g><g><g><text x="822.5" y="406" font-family="Consolas, &quot;Courier New&quot;, monospace" font-size="11px" font-style="italic" font-weight="400" letter-spacing="normal" xml:space="preserve" fill="#dda1df">Condition</text></g></g></g></g></g></g><g id="lhat-svg-49" data-node-id="binary-22" inkscape:label="Node"><g><rect x="824" y="426.5" width="193" height="55" rx="3.5" fill="#323334" stroke="#2a2b2c" stroke-width="1px"/><g clip-path="url(#lhat-svg-50)"/></g></g><g id="lhat-svg-51" data-node-id="ident-19" inkscape:label="Numbern"><g><rect x="830" y="432.5" width="63" height="43" rx="3.5" fill="#121314" stroke="#2a2b2c" stroke-width="1px"/><g clip-path="url(#lhat-svg-52)"><g><g><g><g opacity="0.75"><text x="838.5" y="449.5" font-family="Consolas, &quot;Courier New&quot;, monospace" font-size="10px" font-style="italic" font-weight="400" letter-spacing="normal" xml:space="preserve" fill="#73cfb8">Number</text><path d="M 838.5 451.5 h 32.988" stroke-width="0.7" fill="none" stroke="#73cfb8" stroke-dasharray="1 1"/></g><g><text x="838.5" y="464.5" font-family="Consolas, &quot;Courier New&quot;, monospace" font-size="11px" font-style="normal" font-weight="400" letter-spacing="normal" xml:space="preserve" fill="#bbbebf">n</text></g></g></g></g></g></g></g><g id="lhat-svg-53" data-node-id="operator-20" inkscape:label="&lt;"><g><rect x="900" y="432.5" width="23" height="43" rx="3.5" fill="#121314" stroke="#2a2b2c" stroke-width="1px"/><g clip-path="url(#lhat-svg-54)"><g><g><text x="908.469" y="457.5" font-family="Consolas, &quot;Courier New&quot;, monospace" font-size="11px" font-style="normal" font-weight="400" letter-spacing="normal" xml:space="preserve" fill="#bbbebf">&lt;</text></g></g></g></g></g><g id="lhat-svg-55" data-node-id="int-21" inkscape:label="2"><g><rect x="930" y="432.5" width="63" height="43" rx="14.5" fill="#191a1b" stroke="#565758" stroke-width="1px"/><g clip-path="url(#lhat-svg-56)"><g><g opacity="0.75"><text x="938.5" y="442" font-family="Consolas, &quot;Courier New&quot;, monospace" font-size="10px" font-style="italic" font-weight="400" letter-spacing="normal" xml:space="preserve" fill="#73cfb8">Number</text><path d="M 938.5 444 h 32.988" stroke-width="0.7" fill="none" stroke="#73cfb8" stroke-dasharray="1 1"/></g></g><g><g><g clip-path="url(#lhat-svg-57)"><text x="936.5" y="464.5" font-family="Consolas, &quot;Courier New&quot;, monospace" font-size="11px" font-style="normal" font-weight="400" letter-spacing="normal" xml:space="preserve" fill="#bfbfbf">2</text></g></g></g></g></g></g></svg>
